<?xml version="1.0" standalone="no"?>
<!DOCTYPE svg PUBLIC "-//W3C//DTD SVG 20010904//EN"
 "http://www.w3.org/TR/2001/REC-SVG-20010904/DTD/svg10.dtd">
<svg version="1.0" xmlns="http://www.w3.org/2000/svg"
 width="64.000000pt" height="64.000000pt" viewBox="0 0 64.000000 64.000000"
 preserveAspectRatio="xMidYMid meet">

<g transform="translate(0.000000,64.000000) scale(0.100000,-0.100000)"
fill="#000000" stroke="none">
<path d="M120 340 c0 -207 2 -240 15 -240 13 0 15 32 15 225 l0 225 155 0
c131 0 155 2 155 15 0 13 -26 15 -170 15 l-170 0 0 -240z"/>
<path d="M162 303 l3 -238 113 -3 c61 -1 112 -1 112 1 0 3 -7 21 -16 42 -28
68 12 144 87 166 l39 12 0 129 0 128 -170 0 -170 0 2 -237z m108 157 c0 -27
-3 -30 -30 -30 -27 0 -30 3 -30 30 0 27 3 30 30 30 27 0 30 -3 30 -30z m93 13
c-13 -2 -33 -2 -45 0 -13 2 -3 4 22 4 25 0 35 -2 23 -4z m55 -30 c-21 -2 -57
-2 -80 0 -24 2 -7 4 37 4 44 0 63 -2 43 -4z m-168 -78 c-14 -17 -40 -20 -40
-4 0 5 4 8 9 5 5 -3 14 1 21 9 7 9 15 13 18 10 3 -2 -1 -11 -8 -20z m113 18
c-13 -2 -33 -2 -45 0 -13 2 -3 4 22 4 25 0 35 -2 23 -4z m55 -30 c-21 -2 -57
-2 -80 0 -24 2 -7 4 37 4 44 0 63 -2 43 -4z m-168 -68 c-14 -17 -40 -20 -40
-4 0 5 4 8 9 5 5 -3 14 1 21 9 7 9 15 13 18 10 3 -2 -1 -11 -8 -20z m108 18
c-10 -2 -28 -2 -40 0 -13 2 -5 4 17 4 22 1 32 -1 23 -4z m30 -30 c-15 -2 -42
-2 -60 0 -18 2 -6 4 27 4 33 0 48 -2 33 -4z"/>
<path d="M220 459 c0 -14 5 -19 17 -17 26 5 29 38 4 38 -15 0 -21 -6 -21 -21z"/>
<path d="M555 530 c-9 -15 4 -30 26 -30 12 0 19 7 19 20 0 21 -33 29 -45 10z"/>
<path d="M40 509 c0 -5 5 -7 10 -4 6 3 10 8 10 11 0 2 -4 4 -10 4 -5 0 -10 -5
-10 -11z"/>
<path d="M450 249 c0 -5 -4 -8 -8 -5 -9 6 -48 -35 -44 -46 1 -5 -2 -8 -8 -8
-6 0 -10 -7 -10 -15 0 -8 5 -15 11 -15 8 0 7 -5 -2 -16 -7 -9 -9 -18 -3 -22 5
-4 9 -13 9 -19 0 -7 4 -13 10 -12 5 0 12 -8 16 -18 3 -10 10 -18 15 -18 5 0
15 -4 23 -9 8 -5 16 -4 22 5 6 10 9 11 9 2 0 -7 7 -13 15 -13 8 0 15 5 15 10
0 6 8 10 18 8 10 -2 17 3 16 13 -1 9 6 16 15 15 9 0 15 5 13 13 -2 8 3 18 9
22 10 6 10 11 0 22 -9 12 -9 16 1 19 10 4 10 8 1 19 -6 8 -11 18 -11 24 0 5
-8 12 -17 15 -9 3 -16 10 -16 15 0 6 -7 9 -15 9 -8 -1 -14 2 -14 7 0 14 -28
11 -33 -3 -4 -10 -6 -10 -6 0 -1 15 -31 16 -31 1z m64 -88 c-18 -36 -58 -51
-48 -18 3 12 7 22 8 22 0 0 10 5 21 12 31 18 35 15 19 -16z"/>
<path d="M480 149 c0 -5 5 -7 10 -4 6 3 10 8 10 11 0 2 -4 4 -10 4 -5 0 -10
-5 -10 -11z"/>
<path d="M50 120 c0 -13 5 -20 13 -17 6 2 12 10 12 17 0 7 -6 15 -12 18 -8 2
-13 -5 -13 -18z"/>
<path d="M90 50 c0 -5 5 -10 11 -10 5 0 7 5 4 10 -3 6 -8 10 -11 10 -2 0 -4
-4 -4 -10z"/>
</g>
</svg>
